<svg class="img-responsive" id="site" width="1331pt" height="479pt"
 viewBox="0.00 0.00 1331.00 478.79" xmlns="http://www.w3.org/2000/svg" xmlns:xlink="http://www.w3.org/1999/xlink">
<g id="graph0" class="graph" transform="scale(1 1) rotate(0) translate(4 474.7851)">
<title>workflow</title>
<polygon fill="#ffffff" stroke="transparent" points="-4,4 -4,-474.7851 1327,-474.7851 1327,4 -4,4"/>
<!-- place_c2a6b03f190dfb2b4aa91f8af8d477a9bc3401dc -->
<g id="node1" class="node">
<title>place_c2a6b03f190dfb2b4aa91f8af8d477a9bc3401dc</title>
<ellipse fill="#add8e6" stroke="#333333" cx="57.5" cy="-172" rx="57.5" ry="57.5"/>
<text text-anchor="middle" x="57.5" y="-169.8" font-family="Arial" font-size="9.00" fill="#000000">new</text>
</g>
<!-- transition_2c1e2b1daf8e75bbba55ee03e9b6e28c23686988 -->
<g id="node7" class="node">
<title>transition_2c1e2b1daf8e75bbba55ee03e9b6e28c23686988</title>
<polygon fill="none" stroke="#333333" points="266,-229.5 151,-229.5 151,-114.5 266,-114.5 266,-229.5"/>
<text text-anchor="middle" x="208.5" y="-169.8" font-family="Arial" font-size="9.00" fill="#000000">activate</text>
</g>
<!-- place_c2a6b03f190dfb2b4aa91f8af8d477a9bc3401dc&#45;&gt;transition_2c1e2b1daf8e75bbba55ee03e9b6e28c23686988 -->
<g id="edge1" class="edge">
<title>place_c2a6b03f190dfb2b4aa91f8af8d477a9bc3401dc&#45;&gt;transition_2c1e2b1daf8e75bbba55ee03e9b6e28c23686988</title>
<path fill="none" stroke="#333333" d="M115.0174,-172C125.0246,-172 135.4794,-172 145.6214,-172"/>
<polygon fill="#333333" stroke="#333333" points="145.8926,-173.7501 150.8925,-172 145.8925,-170.2501 145.8926,-173.7501"/>
</g>
<!-- place_2bb6b986c5d6fb26dd9dd1054b545ce022371b0c -->
<g id="node2" class="node">
<title>place_2bb6b986c5d6fb26dd9dd1054b545ce022371b0c</title>
<ellipse fill="none" stroke="#333333" cx="359.5" cy="-172" rx="57.5" ry="57.5"/>
<text text-anchor="middle" x="359.5" y="-169.8" font-family="Arial" font-size="9.00" fill="#000000">active</text>
</g>
<!-- transition_46391d04835c78a8d8635ce7b0551b8d9f6a0623 -->
<g id="node8" class="node">
<title>transition_46391d04835c78a8d8635ce7b0551b8d9f6a0623</title>
<polygon fill="none" stroke="#333333" points="568,-436.5 453,-436.5 453,-321.5 568,-321.5 568,-436.5"/>
<text text-anchor="middle" x="510.5" y="-376.8" font-family="Arial" font-size="9.00" fill="#000000">bad_login</text>
</g>
<!-- place_2bb6b986c5d6fb26dd9dd1054b545ce022371b0c&#45;&gt;transition_46391d04835c78a8d8635ce7b0551b8d9f6a0623 -->
<g id="edge3" class="edge">
<title>place_2bb6b986c5d6fb26dd9dd1054b545ce022371b0c&#45;&gt;transition_46391d04835c78a8d8635ce7b0551b8d9f6a0623</title>
<path fill="none" stroke="#333333" d="M393.3873,-218.4548C414.6076,-247.5448 442.2057,-285.3781 465.2807,-317.0107"/>
<polygon fill="#333333" stroke="#333333" points="464,-318.2244 468.3605,-321.2326 466.8276,-316.1617 464,-318.2244"/>
</g>
<!-- transition_9a2a8cbacf5ce2a8f0f437637691076b761d81d6 -->
<g id="node12" class="node">
<title>transition_9a2a8cbacf5ce2a8f0f437637691076b761d81d6</title>
<polygon fill="none" stroke="#333333" points="568,-229.5 453,-229.5 453,-114.5 568,-114.5 568,-229.5"/>
<text text-anchor="middle" x="510.5" y="-169.8" font-family="Arial" font-size="9.00" fill="#000000">report_bad_fetch</text>
</g>
<!-- place_2bb6b986c5d6fb26dd9dd1054b545ce022371b0c&#45;&gt;transition_9a2a8cbacf5ce2a8f0f437637691076b761d81d6 -->
<g id="edge11" class="edge">
<title>place_2bb6b986c5d6fb26dd9dd1054b545ce022371b0c&#45;&gt;transition_9a2a8cbacf5ce2a8f0f437637691076b761d81d6</title>
<path fill="none" stroke="#333333" d="M417.0174,-172C427.0246,-172 437.4794,-172 447.6214,-172"/>
<polygon fill="#333333" stroke="#333333" points="447.8926,-173.7501 452.8925,-172 447.8925,-170.2501 447.8926,-173.7501"/>
</g>
<!-- transition_5d310091f52b45f4f934e07e2dcd85dc77eee56a -->
<g id="node13" class="node">
<title>transition_5d310091f52b45f4f934e07e2dcd85dc77eee56a</title>
<polygon fill="none" stroke="#333333" points="1172,-272.5 1057,-272.5 1057,-157.5 1172,-157.5 1172,-272.5"/>
<text text-anchor="middle" x="1114.5" y="-212.8" font-family="Arial" font-size="9.00" fill="#000000">deactivate</text>
</g>
<!-- place_2bb6b986c5d6fb26dd9dd1054b545ce022371b0c&#45;&gt;transition_5d310091f52b45f4f934e07e2dcd85dc77eee56a -->
<g id="edge15" class="edge">
<title>place_2bb6b986c5d6fb26dd9dd1054b545ce022371b0c&#45;&gt;transition_5d310091f52b45f4f934e07e2dcd85dc77eee56a</title>
<path fill="none" stroke="#333333" d="M396.0684,-127.0559C412.0857,-109.5886 432.0069,-90.5617 453,-77 535.9759,-23.3971 562.716,0 661.5,0 661.5,0 661.5,0 812.5,0 918.9317,0 1013.8784,-89.7155 1067.766,-153.2389"/>
<polygon fill="#333333" stroke="#333333" points="1066.6968,-154.6861 1071.2558,-157.3839 1069.3743,-152.4319 1066.6968,-154.6861"/>
</g>
<!-- place_9d9f2ff112fdae743826cab85678ecc0b000c5af -->
<g id="node3" class="node">
<title>place_9d9f2ff112fdae743826cab85678ecc0b000c5af</title>
<ellipse fill="none" stroke="#333333" cx="661.5" cy="-391" rx="57.5" ry="57.5"/>
<text text-anchor="middle" x="661.5" y="-388.8" font-family="Arial" font-size="9.00" fill="#000000">unauthorized</text>
</g>
<!-- transition_17e77f802bdd2c0271c3a37120e7ad3aecb0afbe -->
<g id="node9" class="node">
<title>transition_17e77f802bdd2c0271c3a37120e7ad3aecb0afbe</title>
<polygon fill="none" stroke="#333333" points="870,-448.5 755,-448.5 755,-333.5 870,-333.5 870,-448.5"/>
<text text-anchor="middle" x="812.5" y="-388.8" font-family="Arial" font-size="9.00" fill="#000000">fix_credentials</text>
</g>
<!-- place_9d9f2ff112fdae743826cab85678ecc0b000c5af&#45;&gt;transition_17e77f802bdd2c0271c3a37120e7ad3aecb0afbe -->
<g id="edge5" class="edge">
<title>place_9d9f2ff112fdae743826cab85678ecc0b000c5af&#45;&gt;transition_17e77f802bdd2c0271c3a37120e7ad3aecb0afbe</title>
<path fill="none" stroke="#333333" d="M719.0174,-391C729.0246,-391 739.4794,-391 749.6214,-391"/>
<polygon fill="#333333" stroke="#333333" points="749.8926,-392.7501 754.8925,-391 749.8925,-389.2501 749.8926,-392.7501"/>
</g>
<!-- place_9d9f2ff112fdae743826cab85678ecc0b000c5af&#45;&gt;transition_5d310091f52b45f4f934e07e2dcd85dc77eee56a -->
<g id="edge17" class="edge">
<title>place_9d9f2ff112fdae743826cab85678ecc0b000c5af&#45;&gt;transition_5d310091f52b45f4f934e07e2dcd85dc77eee56a</title>
<path fill="none" stroke="#333333" d="M704.0267,-429.9284C719.0363,-441.2476 736.7478,-452.1355 755,-458 803.661,-473.6348 822.1842,-476.0554 870,-458 959.9417,-424.0377 1033.2822,-337.0111 1075.4395,-276.8914"/>
<polygon fill="#333333" stroke="#333333" points="1076.9995,-277.7136 1078.4207,-272.6104 1074.1273,-275.7135 1076.9995,-277.7136"/>
</g>
<!-- place_24c5512fcc2da0c750778c638b27a938debcf952 -->
<g id="node4" class="node">
<title>place_24c5512fcc2da0c750778c638b27a938debcf952</title>
<ellipse fill="none" stroke="#333333" cx="661.5" cy="-172" rx="57.5" ry="57.5"/>
<text text-anchor="middle" x="661.5" y="-169.8" font-family="Arial" font-size="9.00" fill="#000000">probation</text>
</g>
<!-- transition_f113330e0a2fbfaee974db0e8943885015cf3116 -->
<g id="node10" class="node">
<title>transition_f113330e0a2fbfaee974db0e8943885015cf3116</title>
<polygon fill="none" stroke="#333333" points="870,-143.5 755,-143.5 755,-28.5 870,-28.5 870,-143.5"/>
<text text-anchor="middle" x="812.5" y="-83.8" font-family="Arial" font-size="9.00" fill="#000000">fetch_okay</text>
</g>
<!-- place_24c5512fcc2da0c750778c638b27a938debcf952&#45;&gt;transition_f113330e0a2fbfaee974db0e8943885015cf3116 -->
<g id="edge7" class="edge">
<title>place_24c5512fcc2da0c750778c638b27a938debcf952&#45;&gt;transition_f113330e0a2fbfaee974db0e8943885015cf3116</title>
<path fill="none" stroke="#333333" d="M711.7808,-143.3632C724.1906,-136.2954 737.6274,-128.6426 750.5205,-121.2996"/>
<polygon fill="#333333" stroke="#333333" points="751.3911,-122.8177 754.8698,-118.8225 749.6589,-119.7764 751.3911,-122.8177"/>
</g>
<!-- transition_0e63958d767d0ca67a1a4069da2ede62de9722cd -->
<g id="node11" class="node">
<title>transition_0e63958d767d0ca67a1a4069da2ede62de9722cd</title>
<polygon fill="none" stroke="#333333" points="870,-315.5 755,-315.5 755,-200.5 870,-200.5 870,-315.5"/>
<text text-anchor="middle" x="812.5" y="-255.8" font-family="Arial" font-size="9.00" fill="#000000">repeated_failure</text>
</g>
<!-- place_24c5512fcc2da0c750778c638b27a938debcf952&#45;&gt;transition_0e63958d767d0ca67a1a4069da2ede62de9722cd -->
<g id="edge9" class="edge">
<title>place_24c5512fcc2da0c750778c638b27a938debcf952&#45;&gt;transition_0e63958d767d0ca67a1a4069da2ede62de9722cd</title>
<path fill="none" stroke="#333333" d="M711.7808,-200.6368C724.1906,-207.7046 737.6274,-215.3574 750.5205,-222.7004"/>
<polygon fill="#333333" stroke="#333333" points="749.6589,-224.2236 754.8698,-225.1775 751.3911,-221.1823 749.6589,-224.2236"/>
</g>
<!-- place_24c5512fcc2da0c750778c638b27a938debcf952&#45;&gt;transition_5d310091f52b45f4f934e07e2dcd85dc77eee56a -->
<g id="edge13" class="edge">
<title>place_24c5512fcc2da0c750778c638b27a938debcf952&#45;&gt;transition_5d310091f52b45f4f934e07e2dcd85dc77eee56a</title>
<path fill="none" stroke="#333333" d="M719.116,-171.9238C790.3948,-172.582 915.2831,-176.1967 1021,-192 1031.0876,-193.508 1041.6781,-195.6037 1051.9587,-197.9213"/>
<polygon fill="#333333" stroke="#333333" points="1051.712,-199.6602 1056.977,-199.0752 1052.4964,-196.2492 1051.712,-199.6602"/>
</g>
<!-- place_5acf4111241386b9b6b6926c05df8453f376eb04 -->
<g id="node5" class="node">
<title>place_5acf4111241386b9b6b6926c05df8453f376eb04</title>
<ellipse fill="none" stroke="#333333" cx="1265.5" cy="-215" rx="57.5" ry="57.5"/>
<text text-anchor="middle" x="1265.5" y="-212.8" font-family="Arial" font-size="9.00" fill="#000000">stopped</text>
</g>
<!-- place_11b1b5ec9167678979a0e6e703210380431292a8 -->
<g id="node6" class="node">
<title>place_11b1b5ec9167678979a0e6e703210380431292a8</title>
<ellipse fill="none" stroke="#333333" cx="963.5" cy="-258" rx="57.5" ry="57.5"/>
<text text-anchor="middle" x="963.5" y="-255.8" font-family="Arial" font-size="9.00" fill="#000000">paused</text>
</g>
<!-- place_11b1b5ec9167678979a0e6e703210380431292a8&#45;&gt;transition_5d310091f52b45f4f934e07e2dcd85dc77eee56a -->
<g id="edge19" class="edge">
<title>place_11b1b5ec9167678979a0e6e703210380431292a8&#45;&gt;transition_5d310091f52b45f4f934e07e2dcd85dc77eee56a</title>
<path fill="none" stroke="#333333" d="M1018.8694,-242.2326C1029.5992,-239.1771 1040.9141,-235.9549 1051.8577,-232.8385"/>
<polygon fill="#333333" stroke="#333333" points="1052.5268,-234.4676 1056.8563,-231.4151 1051.5682,-231.1015 1052.5268,-234.4676"/>
</g>
<!-- transition_2c1e2b1daf8e75bbba55ee03e9b6e28c23686988&#45;&gt;place_2bb6b986c5d6fb26dd9dd1054b545ce022371b0c -->
<g id="edge2" class="edge">
<title>transition_2c1e2b1daf8e75bbba55ee03e9b6e28c23686988&#45;&gt;place_2bb6b986c5d6fb26dd9dd1054b545ce022371b0c</title>
<path fill="none" stroke="#333333" d="M266.0174,-172C276.0246,-172 286.4794,-172 296.6214,-172"/>
<polygon fill="#333333" stroke="#333333" points="296.8926,-173.7501 301.8925,-172 296.8925,-170.2501 296.8926,-173.7501"/>
</g>
<!-- transition_46391d04835c78a8d8635ce7b0551b8d9f6a0623&#45;&gt;place_9d9f2ff112fdae743826cab85678ecc0b000c5af -->
<g id="edge4" class="edge">
<title>transition_46391d04835c78a8d8635ce7b0551b8d9f6a0623&#45;&gt;place_9d9f2ff112fdae743826cab85678ecc0b000c5af</title>
<path fill="none" stroke="#333333" d="M568.0174,-383.5709C578.1881,-384.3792 588.821,-385.2242 599.1181,-386.0425"/>
<polygon fill="#333333" stroke="#333333" points="599.0196,-387.7901 604.1425,-386.4418 599.2969,-384.3011 599.0196,-387.7901"/>
</g>
<!-- transition_17e77f802bdd2c0271c3a37120e7ad3aecb0afbe&#45;&gt;place_2bb6b986c5d6fb26dd9dd1054b545ce022371b0c -->
<g id="edge6" class="edge">
<title>transition_17e77f802bdd2c0271c3a37120e7ad3aecb0afbe&#45;&gt;place_2bb6b986c5d6fb26dd9dd1054b545ce022371b0c</title>
<path fill="none" stroke="#333333" d="M754.8383,-346.2731C743.3462,-338.5321 731.0846,-331.0428 719,-325 607.8716,-269.431 563.9304,-294.9633 453,-239 437.8114,-231.3375 422.3779,-221.3556 408.5442,-211.4464"/>
<polygon fill="#333333" stroke="#333333" points="409.3805,-209.8914 404.3044,-208.3761 407.3277,-212.7261 409.3805,-209.8914"/>
</g>
<!-- transition_f113330e0a2fbfaee974db0e8943885015cf3116&#45;&gt;place_2bb6b986c5d6fb26dd9dd1054b545ce022371b0c -->
<g id="edge8" class="edge">
<title>transition_f113330e0a2fbfaee974db0e8943885015cf3116&#45;&gt;place_2bb6b986c5d6fb26dd9dd1054b545ce022371b0c</title>
<path fill="none" stroke="#333333" d="M754.8953,-79.6511C682.2872,-73.7757 554.6832,-70.5883 453,-106 436.8453,-111.6259 420.9815,-120.9325 407.0401,-130.8076"/>
<polygon fill="#333333" stroke="#333333" points="405.8053,-129.5407 402.7769,-133.8872 407.8548,-132.3779 405.8053,-129.5407"/>
</g>
<!-- transition_0e63958d767d0ca67a1a4069da2ede62de9722cd&#45;&gt;place_11b1b5ec9167678979a0e6e703210380431292a8 -->
<g id="edge10" class="edge">
<title>transition_0e63958d767d0ca67a1a4069da2ede62de9722cd&#45;&gt;place_11b1b5ec9167678979a0e6e703210380431292a8</title>
<path fill="none" stroke="#333333" d="M870.0174,-258C880.0246,-258 890.4794,-258 900.6214,-258"/>
<polygon fill="#333333" stroke="#333333" points="900.8926,-259.7501 905.8925,-258 900.8925,-256.2501 900.8926,-259.7501"/>
</g>
<!-- transition_9a2a8cbacf5ce2a8f0f437637691076b761d81d6&#45;&gt;place_24c5512fcc2da0c750778c638b27a938debcf952 -->
<g id="edge12" class="edge">
<title>transition_9a2a8cbacf5ce2a8f0f437637691076b761d81d6&#45;&gt;place_24c5512fcc2da0c750778c638b27a938debcf952</title>
<path fill="none" stroke="#333333" d="M568.0174,-172C578.0246,-172 588.4794,-172 598.6214,-172"/>
<polygon fill="#333333" stroke="#333333" points="598.8926,-173.7501 603.8925,-172 598.8925,-170.2501 598.8926,-173.7501"/>
</g>
<!-- transition_5d310091f52b45f4f934e07e2dcd85dc77eee56a&#45;&gt;place_5acf4111241386b9b6b6926c05df8453f376eb04 -->
<g id="edge14" class="edge">
<title>transition_5d310091f52b45f4f934e07e2dcd85dc77eee56a&#45;&gt;place_5acf4111241386b9b6b6926c05df8453f376eb04</title>
<path fill="none" stroke="#333333" d="M1172.0174,-195.2694C1183.1478,-194.6151 1194.8319,-194.579 1206.0235,-195.1609"/>
<polygon fill="#333333" stroke="#333333" points="1206.03,-196.9145 1211.1272,-195.4718 1206.2429,-193.4209 1206.03,-196.9145"/>
</g>
<!-- transition_5d310091f52b45f4f934e07e2dcd85dc77eee56a&#45;&gt;place_5acf4111241386b9b6b6926c05df8453f376eb04 -->
<g id="edge16" class="edge">
<title>transition_5d310091f52b45f4f934e07e2dcd85dc77eee56a&#45;&gt;place_5acf4111241386b9b6b6926c05df8453f376eb04</title>
<path fill="none" stroke="#333333" d="M1172.0174,-208.4231C1182.1881,-208.2239 1192.821,-208.1966 1203.1181,-208.3414"/>
<polygon fill="#333333" stroke="#333333" points="1203.1136,-210.0915 1208.1425,-208.4263 1203.1728,-206.592 1203.1136,-210.0915"/>
</g>
<!-- transition_5d310091f52b45f4f934e07e2dcd85dc77eee56a&#45;&gt;place_5acf4111241386b9b6b6926c05df8453f376eb04 -->
<g id="edge18" class="edge">
<title>transition_5d310091f52b45f4f934e07e2dcd85dc77eee56a&#45;&gt;place_5acf4111241386b9b6b6926c05df8453f376eb04</title>
<path fill="none" stroke="#333333" d="M1172.0174,-221.5769C1182.1881,-221.7761 1192.821,-221.8034 1203.1181,-221.6586"/>
<polygon fill="#333333" stroke="#333333" points="1203.1728,-223.408 1208.1425,-221.5737 1203.1136,-219.9085 1203.1728,-223.408"/>
</g>
<!-- transition_5d310091f52b45f4f934e07e2dcd85dc77eee56a&#45;&gt;place_5acf4111241386b9b6b6926c05df8453f376eb04 -->
<g id="edge20" class="edge">
<title>transition_5d310091f52b45f4f934e07e2dcd85dc77eee56a&#45;&gt;place_5acf4111241386b9b6b6926c05df8453f376eb04</title>
<path fill="none" stroke="#333333" d="M1172.0174,-234.7306C1183.1478,-235.3849 1194.8319,-235.421 1206.0235,-234.8391"/>
<polygon fill="#333333" stroke="#333333" points="1206.2429,-236.5791 1211.1272,-234.5282 1206.03,-233.0855 1206.2429,-236.5791"/>
</g>
</g>
</svg>
